<svg width="180" height="13" viewBox="0 0 180 13" fill="none" xmlns="http://www.w3.org/2000/svg">
<path d="M2.03149 10.8729L3.54883 7.42444L0 0.138672H1.74307L3.64915 3.97592L4.43917 5.69391L5.12888 4.001L6.78416 0.138672H8.53977L3.72439 10.8729H2.03149Z" fill="#46C0C1"/>
<path d="M17.0454 4.65266H18.6506C19.7165 4.65266 20.1177 3.77486 20.1177 3.07262C20.1177 1.90639 19.0895 1.50511 18.0862 1.50511C17.2711 1.50511 16.4435 1.96909 16.2429 2.79674L14.8509 2.45816C15.2397 0.840492 16.6567 0.0253906 18.0862 0.0253906C19.9296 0.0253906 21.6351 0.903192 21.6602 3.07262C21.6602 3.9128 21.4595 4.7906 20.682 5.30474C21.6476 5.86905 22.1367 6.73431 22.1241 7.87545C22.1116 9.41788 20.7573 10.9854 18.1866 10.9854C15.8917 10.9854 14.8008 9.65614 14.5625 8.18895L16.0046 7.92561C16.1425 8.77834 16.8448 9.54328 18.1991 9.54328C19.9046 9.54328 20.6068 8.61532 20.6068 7.72497C20.6068 6.96003 20.0676 6.06969 18.6756 6.06969H17.0705V4.65266H17.0454Z" fill="#46C0C1"/>
<path d="M33.2563 9.34224V12.5776H31.7389V10.8596H25.3686V12.5776H23.8262V9.61812L24.6789 9.4551C25.2934 8.81556 25.5065 7.43615 25.5943 6.45803L26.0081 0.150391H32.3785V9.35478H33.2563V9.34224ZM30.7859 9.34224V1.63011H27.4753L27.2496 5.44229C27.1744 7.11011 27.1117 8.41428 26.422 9.34224H30.7859Z" fill="#46C0C1"/>
<path d="M36.5984 1.61766C37.5766 0.627001 38.956 0 40.4608 0C41.9781 0 43.345 0.627001 44.3356 1.61766C45.3012 2.60833 45.9282 3.97519 45.9282 5.49254C45.9282 7.00988 45.3012 8.37675 44.3356 9.36741C43.345 10.3832 41.9781 10.9851 40.4608 10.9851C38.956 10.9851 37.5766 10.3706 36.5984 9.36741C35.6329 8.37675 35.0059 7.00988 35.0059 5.49254C35.0059 3.97519 35.6329 2.62087 36.5984 1.61766ZM43.2321 2.72119C42.5173 2.00641 41.5141 1.55496 40.4608 1.55496C39.4074 1.55496 38.4293 1.99387 37.7145 2.72119C37.0123 3.42343 36.5608 4.40155 36.5608 5.49254C36.5608 6.58352 36.9997 7.56164 37.7145 8.26389C38.4168 8.97867 39.3949 9.43011 40.4608 9.43011C41.5141 9.43011 42.5173 8.99121 43.2321 8.26389C43.9218 7.56164 44.3607 6.59606 44.3607 5.49254C44.3607 4.38901 43.9218 3.43597 43.2321 2.72119Z" fill="#46C0C1"/>
<path d="M52.0071 0.138672C54.3144 0.138672 55.4807 1.9319 55.4807 3.72512C55.4807 5.51835 54.3144 7.2865 52.0071 7.2865H49.6495V10.8604H48.082V0.138672H52.0071ZM52.0071 5.75661C53.3112 5.75661 53.9508 4.74086 53.9508 3.73766C53.9508 2.70938 53.3112 1.70618 52.0071 1.70618H49.6495V5.76915H52.0071V5.75661Z" fill="#46C0C1"/>
<path d="M58.9871 1.61766C59.9652 0.627001 61.3446 0 62.8494 0C64.3668 0 65.7337 0.627001 66.7243 1.61766C67.6899 2.60833 68.3169 3.97519 68.3169 5.49254C68.3169 7.00988 67.6899 8.37675 66.7243 9.36741C65.7337 10.3832 64.3668 10.9851 62.8494 10.9851C61.3446 10.9851 59.9652 10.3706 58.9871 9.36741C58.0215 8.37675 57.3945 7.00988 57.3945 5.49254C57.3945 3.97519 58.0215 2.62087 58.9871 1.61766ZM65.6208 2.72119C64.906 2.00641 63.9028 1.55496 62.8494 1.55496C61.7961 1.55496 60.818 1.99387 60.1032 2.72119C59.4009 3.42343 58.9495 4.40155 58.9495 5.49254C58.9495 6.58352 59.3884 7.56164 60.1032 8.26389C60.8054 8.97867 61.7835 9.43011 62.8494 9.43011C63.9028 9.43011 64.906 8.99121 65.6208 8.26389C66.3105 7.56164 66.7494 6.59606 66.7494 5.49254C66.7494 4.38901 66.3105 3.43597 65.6208 2.72119Z" fill="#46C0C1"/>
<path d="M74.8705 0.138672C77.4161 0.138672 78.7078 3.44924 76.6763 4.96659C77.9052 5.49327 78.3566 6.62187 78.3566 7.62507C78.3566 9.2302 77.3033 10.8604 75.2467 10.8604H70.4062V0.138672H74.8705ZM71.9487 4.41483H74.8454C76.5258 4.41483 76.5634 1.6184 74.8705 1.6184H71.9487V4.41483ZM71.9487 9.3556H75.2592C76.3001 9.3556 76.8268 8.4778 76.8268 7.63761C76.8268 6.79743 76.3001 5.93217 75.2592 5.93217H71.9487V9.3556Z" fill="#46C0C1"/>
<path d="M81.0938 10.8604V0.138672H82.6613V3.71258H85.0188C87.3261 3.71258 88.4924 5.49327 88.4924 7.27395C88.4924 9.06718 87.3261 10.8604 85.0188 10.8604H81.0938ZM82.6613 5.24247V9.33052H85.0188C86.3229 9.33052 86.9625 8.2897 86.9625 7.26141C86.9625 6.24567 86.3229 5.24247 85.0188 5.24247H82.6613Z" fill="#46C0C1"/>
<path d="M95.6993 6.15707L91.7994 10.8596H89.793L93.1788 6.83423C91.3354 6.50819 90.4074 5.07862 90.4074 3.56128C90.4074 1.85583 91.5736 0.150391 93.8936 0.150391H97.7935V10.8721H96.2511V1.7179H93.8936C92.5894 1.7179 91.9498 2.64586 91.9498 3.57382C91.9498 4.50178 92.5894 5.44229 93.8936 5.44229H95.6993V6.15707Z" fill="#46C0C1"/>
<path d="M105.198 9.30544H110.164V10.8604H103.631V0.138672H110.152V1.6811H105.198V4.70325H110.051V6.25821H105.198V9.30544Z" fill="#46C0C1"/>
<path d="M113.454 1.68047C114.394 0.71489 115.711 0.0878906 117.166 0.0878906C119.611 0.0878906 121.542 1.61778 122.157 4.038H120.627C120.062 2.43288 118.746 1.61777 117.166 1.61777C116.137 1.61777 115.209 2.05668 114.532 2.77146C113.855 3.4737 113.429 4.42674 113.429 5.53027C113.429 6.59617 113.855 7.54921 114.532 8.25145C115.209 8.9537 116.137 9.40514 117.166 9.40514C118.783 9.40514 120.163 8.47718 120.714 6.84697H122.232C121.617 9.27974 119.661 10.935 117.166 10.935C115.711 10.935 114.394 10.3206 113.454 9.34244C112.538 8.36432 111.924 7.00999 111.924 5.53027C111.924 4.01292 112.538 2.6586 113.454 1.68047Z" fill="#46C0C1"/>
<path d="M126.035 10.8604V1.60585H122.787V0.138672H130.813V1.60585H127.577V10.8604H126.035Z" fill="#46C0C1"/>
<path d="M132.816 10.8604V0.138672H134.384V3.71258H136.741C139.049 3.71258 140.215 5.49327 140.215 7.27395C140.215 9.06718 139.049 10.8604 136.741 10.8604H132.816ZM134.371 5.24247V9.33052H136.729C138.033 9.33052 138.673 8.2897 138.673 7.26141C138.673 6.24567 138.033 5.24247 136.729 5.24247H134.371Z" fill="#46C0C1"/>
<path d="M154.095 10.8604V3.374L148.928 10.8604H147.699V0.138672H149.229V7.68777L154.446 0.138672H155.65V10.8604H154.095Z" fill="#46C0C1"/>
<path d="M161.101 10.8604H159.559V0.138672H160.813L164.349 5.34279L167.885 0.138672H169.114V10.8604H167.584V3.3113L164.775 7.4746H163.91L161.101 3.3113V10.8604Z" fill="#46C0C1"/>
<path d="M177.166 6.15902L173.266 10.8615H171.26L174.646 6.83618C172.802 6.51014 171.874 5.08058 171.874 3.56323C171.874 1.85779 173.04 0.152344 175.36 0.152344H179.26V10.8741H177.718V1.71985H175.36C174.056 1.71985 173.417 2.64781 173.417 3.57577C173.417 4.50374 174.056 5.44424 175.36 5.44424H177.166V6.15902Z" fill="#46C0C1"/>
</svg>
